#N canvas 0 23 1440 851 12;
#X obj 33 366 s init;
#N canvas 363 191 624 424 clock 0;
#X obj 100 192 int;
#X obj 155 176 + 1;
#X floatatom 191 235 0 0 0 0 - - -;
#X obj 74 150 metro 120;
#X floatatom 176 83 0 0 0 0 - - -;
#X obj 181 323 s beat;
#X obj 39 26 inlet;
#X obj 344 24 inlet;
#X obj 316 182 int;
#X obj 401 23 inlet;
#X obj 163 25 inlet;
#X obj 230 24 inlet;
#X msg 233 83 0;
#X obj 259 352 outlet;
#X obj 492 288 int;
#X obj 535 268 + 1;
#X obj 329 323 int;
#X obj 372 303 - 1;
#X obj 372 336 moses 0;
#X obj 454 24 inlet;
#X obj 508 23 inlet;
#X obj 131 350 spigot;
#X msg 498 216 bang;
#X text 535 211 next bar;
#X text 406 303 last bar;
#X obj 69 289 select 15;
#X obj 191 207 mod 8;
#X connect 0 0 1 0;
#X connect 1 0 26 0;
#X connect 2 0 0 1;
#X connect 2 0 5 0;
#X connect 2 0 25 0;
#X connect 3 0 0 0;
#X connect 4 0 3 1;
#X connect 6 0 3 0;
#X connect 7 0 16 0;
#X connect 8 0 13 0;
#X connect 8 0 14 1;
#X connect 8 0 16 1;
#X connect 9 0 14 0;
#X connect 10 0 4 0;
#X connect 11 0 12 0;
#X connect 12 0 8 0;
#X connect 12 0 26 0;
#X connect 14 0 15 0;
#X connect 15 0 8 0;
#X connect 16 0 17 0;
#X connect 17 0 18 0;
#X connect 18 0 12 0;
#X connect 18 1 8 0;
#X connect 19 0 8 0;
#X connect 20 0 21 1;
#X connect 21 0 22 0;
#X connect 22 0 14 0;
#X connect 25 0 21 0;
#X connect 26 0 2 0;
#X restore 54 144 pd clock;
#X obj 51 55 tgl 20 0 empty empty start/stop 20 8 0 8 -241291 -258699
-1 0 1;
#X floatatom 83 87 0 0 0 0 - - -;
#X text 93 111 tempo;
#X floatatom 54 169 0 0 0 0 - - -;
#X obj 33 13 loadbang;
#X text 56 35 CLOCK;
#N canvas 330 348 631 368 output 0;
#X obj 338 160 t b;
#X obj 338 110 f;
#X obj 338 60 inlet;
#X text 344 29 mute;
#X obj 338 185 f;
#X msg 425 178 0;
#X msg 338 85 bang;
#X obj 338 135 moses 1;
#X obj 425 153 t b f;
#X obj 397 117 moses 1;
#X obj 83 148 dbtorms;
#X obj 397 92 r master-lvl;
#X obj 83 42 r master-lvl;
#X obj 338 210 s master-lvl;
#X obj 22 181 inlet~;
#X obj 199 41 inlet;
#X text 199 18 level;
#X obj 199 100 s master-lvl;
#X msg 96 65 set \$1;
#X obj 96 89 outlet;
#X msg 214 64 \; pd dsp 1;
#X obj 83 194 line~;
#X obj 22 212 *~;
#X obj 22 241 dac~;
#X obj 83 171 pack 0 50;
#X text 20 158 audio;
#X text 93 110 show level;
#X connect 0 0 4 0;
#X connect 1 0 7 0;
#X connect 2 0 6 0;
#X connect 4 0 13 0;
#X connect 5 0 13 0;
#X connect 6 0 1 0;
#X connect 7 0 0 0;
#X connect 7 1 8 0;
#X connect 8 0 5 0;
#X connect 9 1 4 1;
#X connect 10 0 24 0;
#X connect 11 0 1 1;
#X connect 11 0 9 0;
#X connect 12 0 10 0;
#X connect 12 0 18 0;
#X connect 14 0 22 0;
#X connect 15 0 17 0;
#X connect 15 0 20 0;
#X connect 18 0 19 0;
#X connect 21 0 22 1;
#X connect 22 0 23 0;
#X connect 22 0 23 1;
#X connect 24 0 21 0;
#X restore 706 655 pd output;
#X msg 812 655 MUTE;
#X obj 820 569 loadbang;
#X obj 508 503 instruments -------------;
#X msg 33 338 bang;
#X obj 17 391 s sampleinit;
#X obj 717 520 instruments2 -------;
#X text 718 502 <--sampleplayers are in here;
#X obj 176 757 hsl 128 15 0.1 10 0 0 empty empty empty -2 -8 0 10 -262144
-1 -1 12700 1;
#N canvas 0 22 450 300 (subpatch) 0;
#X array array1 1.72915e+06 float 2;
#X coords 0 1 1.72915e+06 -1 200 140 1;
#X restore 1466 227 graph;
#X obj 1067 90 openpanel;
#X obj 1067 66 bng 15 250 50 0 empty empty empty 0 -6 0 8 -262144 -1
-1;
#X obj 1067 142 soundfiler;
#X msg 1067 116 read -resize \$1 array1;
#X obj 1067 180 expr 44100 / $f1;
#X floatatom 1067 340 5 0 0 0 - - -, f 5;
#X obj 1067 435 phasor~;
#X obj 1467 375 hsl 200 15 0 1 0 0 empty empty empty -2 -6 0 8 -262144
-1 -1 15253 1;
#X text 1465 398 0;
#X text 1665 395 1;
#X obj 1068 652 tabread4~ array1;
#X obj 1102 734 line~;
#X msg 1102 708 \$1 20;
#X floatatom 1102 681 5 0 0 0 - - -, f 5;
#X obj 1067 762 *~;
#X obj 1068 794 hip~ 5;
#X obj 1068 824 dac~;
#X obj 1067 408 *;
#X obj 1177 285 hsl 128 15 -2 10 0 0 empty empty empty -2 -6 0 8 -262144
-1 -1 12700 1;
#X text 1164 302 -2;
#X text 1302 303 2;
#X obj 1464 193 hsl 200 15 0 1 0 0 empty empty empty -2 -6 0 8 -262144
-1 -1 19900 1;
#X obj 1463 159 hsl 200 15 0 1 0 0 empty empty empty -2 -6 0 8 -262144
-1 -1 0 1;
#X obj 1068 536 +~;
#X obj 1218 429 -;
#X floatatom 1218 395 5 0 0 0 - - -, f 5;
#X obj 1286 391 t f b;
#X obj 1067 616 *~;
#X obj 1097 219 expr 1 / $f1;
#X obj 1097 270 *;
#X obj 1132 526 unsig~ 20;
#X text 1459 133 0;
#X text 1658 133 1;
#X text 1060 7 3.4.2.3. any position;
#X text 1090 63 first load sound file;
#X text 1373 154 left limit;
#X text 1677 190 right limit;
#X text 1476 422 slider shows playing position;
#X text 1263 426 difference of both (;
#X text 1260 445 always calculated \, not;
#X text 1259 488 input on the left);
#X text 1158 680 volume;
#X text 1135 791 DC offset filter;
#X obj 1104 308 t b f;
#X obj 1068 499 *~;
#X text 1256 462 only if there is an;
#X text 1173 261 playback speed;
#X obj 1266 218 r loud;
#X obj 183 -9 r loud;
#X obj 166 58 /;
#X obj 150 21 t b f;
#X obj 113 49 200;
#X text 384 841 creation arguments are OSC address;
#X msg 456 954 disconnect;
#X obj 448 981 netsend -u -b;
#X msg 457 930 connect localhost 5000;
#X obj 449 880 list prepend send;
#X obj 449 905 list trim;
#X text 551 954 don't send;
#X obj 186 843 oscformat loud;
#X obj 887 850 oscparse;
#X obj 887 819 netreceive -u -b;
#X msg 887 764 listen 5000;
#X msg 899 792 listen 0;
#X text 884 740 packets from network;
#X obj 887 879 list trim;
#X obj 888 912 unpack;
#X obj 951 946 s loud;
#X obj 1262 654 loadbang;
#X obj 1308 41 loadbang;
#X msg 1311 258 1;
#X obj 1340 234 loadbang;
#X obj 1672 99 loadbang;
#X msg 1715 158 1;
#X obj 672 732 loadbang;
#X msg 1180 84 read -resize samples/ambient.wav array1;
#X floatatom 159 464 5 0 0 0 - - -, f 5;
#X obj 161 502 + 1;
#X obj 171 537 * 3;
#X obj 166 599 noteout;
#X obj 166 573 makenote 104 200;
#X obj 153 268 bng 15 250 50 0 empty empty empty 17 7 0 10 -262144
-1 -1;
#X obj 240 269 bng 15 250 50 0 empty empty empty 17 7 0 10 -262144
-1 -1;
#X obj 343 268 bng 15 250 50 0 empty empty empty 17 7 0 10 -262144
-1 -1;
#X obj 430 269 bng 15 250 50 0 empty empty empty 17 7 0 10 -262144
-1 -1;
#X obj 333 289 step 26 27;
#X obj 238 296 step 22 23;
#X obj 143 289 step 18 19;
#X obj 428 296 step 30 31;
#X obj 331 196 select 0 1 2 3 4 5 6 7;
#X obj 340 142 r beat;
#X obj 545 271 bng 15 250 50 0 empty empty empty 17 7 0 10 -262144
-1 -1;
#X obj 632 272 bng 15 250 50 0 empty empty empty 17 7 0 10 -262144
-1 -1;
#X obj 735 271 bng 15 250 50 0 empty empty empty 17 7 0 10 -262144
-1 -1;
#X obj 822 272 bng 15 250 50 0 empty empty empty 17 7 0 10 -262144
-1 -1;
#X obj 535 292 step 48 49;
#X obj 631 299 step 52 53;
#X obj 725 292 step 56 57;
#X obj 821 299 step 60 61;
#X obj 191 426 r beat;
#X msg 1227 724 0.5;
#X floatatom 932 604 5 0 0 0 - - -, f 5;
#X obj 929 557 / 127;
#X obj 905 431 ctlin 62 1;
#X obj 928 582 * 100;
#X floatatom 754 627 0 0 0 0 - - -;
#X connect 1 0 5 0;
#X connect 2 0 1 0;
#X connect 3 0 1 1;
#X connect 6 0 12 0;
#X connect 6 0 2 0;
#X connect 8 0 123 0;
#X connect 9 0 8 2;
#X connect 11 0 8 0;
#X connect 11 1 8 0;
#X connect 11 2 8 0;
#X connect 11 3 8 0;
#X connect 11 4 8 0;
#X connect 12 0 0 0;
#X connect 12 0 13 0;
#X connect 14 0 8 0;
#X connect 14 1 8 0;
#X connect 14 2 8 0;
#X connect 16 0 77 0;
#X connect 18 0 21 0;
#X connect 19 0 18 0;
#X connect 20 0 22 0;
#X connect 20 0 45 1;
#X connect 21 0 20 0;
#X connect 22 0 47 1;
#X connect 23 0 35 0;
#X connect 24 0 62 0;
#X connect 28 0 32 0;
#X connect 29 0 32 1;
#X connect 30 0 29 0;
#X connect 31 0 30 0;
#X connect 32 0 33 0;
#X connect 33 0 34 0;
#X connect 33 0 34 1;
#X connect 35 0 24 0;
#X connect 36 0 61 0;
#X connect 39 0 43 0;
#X connect 40 0 44 0;
#X connect 41 0 45 0;
#X connect 41 0 48 0;
#X connect 42 0 46 0;
#X connect 42 0 62 1;
#X connect 43 0 42 0;
#X connect 44 0 42 1;
#X connect 44 0 41 1;
#X connect 44 1 43 0;
#X connect 45 0 28 0;
#X connect 46 0 47 0;
#X connect 47 0 23 0;
#X connect 48 0 25 0;
#X connect 61 0 23 0;
#X connect 61 1 35 1;
#X connect 62 0 41 0;
#X connect 65 0 36 0;
#X connect 66 0 68 0;
#X connect 67 0 3 0;
#X connect 68 0 69 0;
#X connect 68 1 67 1;
#X connect 69 0 67 0;
#X connect 71 0 72 0;
#X connect 73 0 72 0;
#X connect 74 0 75 0;
#X connect 75 0 72 0;
#X connect 77 0 74 0;
#X connect 78 0 83 0;
#X connect 79 0 78 0;
#X connect 80 0 79 0;
#X connect 81 0 79 0;
#X connect 83 0 84 0;
#X connect 84 1 85 0;
#X connect 86 0 118 0;
#X connect 87 0 93 0;
#X connect 88 0 36 0;
#X connect 89 0 88 0;
#X connect 90 0 91 0;
#X connect 91 0 39 0;
#X connect 92 0 73 0;
#X connect 92 0 80 0;
#X connect 93 0 20 0;
#X connect 94 0 95 0;
#X connect 95 0 96 0;
#X connect 96 0 98 0;
#X connect 98 0 97 0;
#X connect 98 1 97 1;
#X connect 99 0 105 0;
#X connect 100 0 104 0;
#X connect 101 0 103 0;
#X connect 102 0 106 0;
#X connect 107 0 99 0;
#X connect 107 1 100 0;
#X connect 107 2 101 0;
#X connect 107 3 102 0;
#X connect 107 4 109 0;
#X connect 107 5 110 0;
#X connect 107 6 111 0;
#X connect 107 7 112 0;
#X connect 108 0 107 0;
#X connect 109 0 113 0;
#X connect 110 0 114 0;
#X connect 111 0 115 0;
#X connect 112 0 116 0;
#X connect 117 0 94 0;
#X connect 118 0 30 0;
#X connect 119 0 8 1;
#X connect 119 0 123 0;
#X connect 120 0 122 0;
#X connect 121 0 120 0;
#X connect 122 0 119 0;
#X connect 123 0 8 1;
