#N canvas 271 71 1009 703 12;
#X obj 186 109 bng 25 250 50 0 empty empty play 30 10 0 8 -258699 -241291
-1;
#X obj 216 132 bng 25 250 50 0 empty empty load 30 10 0 8 -258699 -241291
-1;
#X symbolatom 268 651 50 0 0 0 - - -;
#X obj 186 86 r channel1;
#X obj 100 192 sampleplayer 1;
#X obj 99 220 outlet~;
#X obj 63 27 r sampleinit;
#X floatatom 25 148 5 0 0 0 - - -;
#X text 20 130 length;
#X floatatom 11 292 5 0 0 0 - - -;
#X text 19 189 volume;
#X floatatom 73 148 5 0 0 0 - - -;
#X floatatom 122 148 5 0 0 0 - - -;
#X text 122 128 pitch;
#X text 74 129 start;
#X obj 206 220 s lastload;
#X obj 268 621 r lastload;
#X msg 63 100 1;
#X msg 25 100 440;
#X obj 311 374 bng 25 250 50 0 empty empty play 30 10 0 8 -258699 -241291
-1;
#X obj 341 397 bng 25 250 50 0 empty empty load 30 10 0 8 -258699 -241291
-1;
#X obj 224 485 outlet~;
#X obj 188 292 r sampleinit;
#X floatatom 150 413 5 0 0 0 - - -;
#X text 145 395 length;
#X floatatom 151 436 5 0 0 0 - - -;
#X text 144 454 volume;
#X floatatom 198 413 5 0 0 0 - - -;
#X floatatom 247 413 5 0 0 0 - - -;
#X text 247 393 pitch;
#X text 199 394 start;
#X obj 331 485 s lastload;
#X msg 188 365 1;
#X msg 150 365 440;
#X obj 224 457 sampleplayer 2;
#X obj 311 351 r channel2;
#X obj 521 149 bng 25 250 50 0 empty empty play 30 10 0 8 -258699 -241291
-1;
#X obj 551 172 bng 25 250 50 0 empty empty load 30 10 0 8 -258699 -241291
-1;
#X obj 434 260 outlet~;
#X obj 398 67 r sampleinit;
#X floatatom 360 188 5 0 0 0 - - -;
#X text 355 170 length;
#X floatatom 361 211 5 0 0 0 - - -;
#X text 354 229 volume;
#X floatatom 408 188 5 0 0 0 - - -;
#X floatatom 457 188 5 0 0 0 - - -;
#X text 457 168 pitch;
#X text 409 169 start;
#X obj 541 260 s lastload;
#X msg 398 140 1;
#X msg 360 140 440;
#X obj 434 232 sampleplayer 3;
#X obj 521 126 r channel3;
#X obj 675 386 bng 25 250 50 0 empty empty play 30 10 0 8 -258699 -241291
-1;
#X obj 705 409 bng 25 250 50 0 empty empty load 30 10 0 8 -258699 -241291
-1;
#X obj 588 497 outlet~;
#X obj 552 304 r sampleinit;
#X floatatom 514 425 5 0 0 0 - - -;
#X text 509 407 length;
#X floatatom 515 448 5 0 0 0 - - -;
#X text 508 466 volume;
#X floatatom 562 425 5 0 0 0 - - -;
#X floatatom 611 425 5 0 0 0 - - -;
#X text 611 405 pitch;
#X text 563 406 start;
#X obj 695 497 s lastload;
#X msg 552 377 1;
#X msg 514 377 440;
#X obj 675 363 r channel4;
#X obj 588 469 sampleplayer 4;
#X obj 788 91 bng 25 250 50 0 empty empty play 30 10 0 8 -258699 -241291
-1;
#X obj 818 114 bng 25 250 50 0 empty empty load 30 10 0 8 -258699 -241291
-1;
#X obj 701 202 outlet~;
#X obj 665 9 r sampleinit;
#X floatatom 627 130 5 0 0 0 - - -;
#X text 622 112 length;
#X floatatom 628 153 5 0 0 0 - - -;
#X text 621 171 volume;
#X floatatom 675 130 5 0 0 0 - - -;
#X floatatom 724 130 5 0 0 0 - - -;
#X text 724 110 pitch;
#X text 676 111 start;
#X obj 808 202 s lastload;
#X msg 665 82 1;
#X msg 627 82 440;
#X obj 701 174 sampleplayer 5;
#X obj 788 68 r channel5;
#X msg 100 100 100;
#X msg 435 140 100;
#X msg 589 377 100;
#X msg 225 365 100;
#X msg 702 82 100;
#X text 438 600 pitch is based at 100 as natural playback speed;
#X text 438 617 load samples with bang and copy path into loader message
;
#X msg 224 166 samples/drum1.wav;
#X msg 702 443 samples/drum4.wav;
#X obj 9 216 r vol1;
#X obj 62 361 clip;
#X obj 11 241 / 127;
#X obj 10 266 * 10;
#X obj 71 453 / 127;
#X obj 70 478 * 10;
#X msg 338 433 samples/drum2.wav;
#X msg 815 148 samples/drum5.wav;
#X obj 313 264 / 127;
#X obj 312 289 * 10;
#X obj 311 239 r vol3;
#X obj 69 428 r vol2;
#X obj 486 525 / 127;
#X obj 485 550 * 10;
#X obj 484 500 r vol4;
#X obj 696 270 / 127;
#X obj 695 295 * 10;
#X obj 694 245 r vol5;
#X obj 104 263 dac~;
#X msg 547 207 samples/drum3.wav;
#X connect 0 0 4 4;
#X connect 1 0 4 5;
#X connect 3 0 0 0;
#X connect 4 0 5 0;
#X connect 4 0 114 0;
#X connect 4 1 15 0;
#X connect 6 0 18 0;
#X connect 6 0 17 0;
#X connect 6 0 87 0;
#X connect 6 0 94 0;
#X connect 7 0 4 1;
#X connect 11 0 4 2;
#X connect 12 0 4 3;
#X connect 16 0 2 0;
#X connect 17 0 11 0;
#X connect 18 0 7 0;
#X connect 19 0 34 4;
#X connect 20 0 34 5;
#X connect 22 0 102 0;
#X connect 22 0 33 0;
#X connect 22 0 32 0;
#X connect 22 0 90 0;
#X connect 23 0 34 1;
#X connect 25 0 34 0;
#X connect 27 0 34 2;
#X connect 28 0 34 3;
#X connect 32 0 27 0;
#X connect 33 0 23 0;
#X connect 34 0 21 0;
#X connect 34 1 31 0;
#X connect 35 0 19 0;
#X connect 36 0 51 4;
#X connect 37 0 51 5;
#X connect 39 0 115 0;
#X connect 39 0 50 0;
#X connect 39 0 49 0;
#X connect 39 0 88 0;
#X connect 40 0 51 1;
#X connect 42 0 51 0;
#X connect 44 0 51 2;
#X connect 45 0 51 3;
#X connect 49 0 44 0;
#X connect 50 0 40 0;
#X connect 51 0 38 0;
#X connect 51 1 48 0;
#X connect 52 0 36 0;
#X connect 53 0 69 4;
#X connect 54 0 69 5;
#X connect 56 0 67 0;
#X connect 56 0 66 0;
#X connect 56 0 89 0;
#X connect 56 0 95 0;
#X connect 57 0 69 1;
#X connect 59 0 69 0;
#X connect 61 0 69 2;
#X connect 62 0 69 3;
#X connect 66 0 61 0;
#X connect 67 0 57 0;
#X connect 68 0 53 0;
#X connect 69 0 55 0;
#X connect 69 1 65 0;
#X connect 70 0 85 4;
#X connect 71 0 85 5;
#X connect 73 0 103 0;
#X connect 73 0 84 0;
#X connect 73 0 83 0;
#X connect 73 0 91 0;
#X connect 74 0 85 1;
#X connect 76 0 85 0;
#X connect 78 0 85 2;
#X connect 79 0 85 3;
#X connect 83 0 78 0;
#X connect 84 0 74 0;
#X connect 85 0 72 0;
#X connect 85 1 82 0;
#X connect 86 0 70 0;
#X connect 87 0 12 0;
#X connect 88 0 45 0;
#X connect 89 0 62 0;
#X connect 90 0 28 0;
#X connect 91 0 79 0;
#X connect 94 0 4 6;
#X connect 95 0 69 6;
#X connect 96 0 98 0;
#X connect 98 0 99 0;
#X connect 99 0 9 0;
#X connect 99 0 4 0;
#X connect 100 0 101 0;
#X connect 101 0 25 0;
#X connect 102 0 34 6;
#X connect 103 0 85 6;
#X connect 104 0 105 0;
#X connect 105 0 42 0;
#X connect 106 0 104 0;
#X connect 107 0 100 0;
#X connect 108 0 109 0;
#X connect 109 0 59 0;
#X connect 110 0 108 0;
#X connect 111 0 112 0;
#X connect 112 0 76 0;
#X connect 113 0 111 0;
#X connect 115 0 51 6;
