#N canvas 0 22 1009 703 12;
#X obj 171 109 bng 25 250 50 0 empty empty play 30 10 0 8 -258699 -241291
-1;
#X obj 201 132 bng 25 250 50 0 empty empty load 30 10 0 8 -258699 -241291
-1;
#X symbolatom 268 651 50 0 0 0 - - -;
#X obj 84 220 outlet~;
#X obj 48 27 r sampleinit;
#X floatatom 10 148 5 0 0 0 - - -;
#X text 5 130 length;
#X floatatom 11 171 5 0 0 0 - - -;
#X text 4 189 volume;
#X floatatom 58 148 5 0 0 0 - - -;
#X floatatom 107 148 5 0 0 0 - - -;
#X text 107 128 pitch;
#X text 59 129 start;
#X obj 191 220 s lastload;
#X obj 268 621 r lastload;
#X msg 48 100 1;
#X msg 10 100 440;
#X obj 311 374 bng 25 250 50 0 empty empty play 30 10 0 8 -258699 -241291
-1;
#X obj 341 397 bng 25 250 50 0 empty empty load 30 10 0 8 -258699 -241291
-1;
#X obj 224 485 outlet~;
#X obj 188 292 r sampleinit;
#X floatatom 150 413 5 0 0 0 - - -;
#X text 145 395 length;
#X floatatom 151 436 5 0 0 0 - - -;
#X text 144 454 volume;
#X floatatom 198 413 5 0 0 0 - - -;
#X floatatom 247 413 5 0 0 0 - - -;
#X text 247 393 pitch;
#X text 199 394 start;
#X obj 331 485 s lastload;
#X msg 188 365 1;
#X msg 150 365 440;
#X obj 534 150 bng 25 250 50 0 empty empty play 30 10 0 8 -258699 -241291
-1;
#X obj 564 173 bng 25 250 50 0 empty empty load 30 10 0 8 -258699 -241291
-1;
#X obj 447 261 outlet~;
#X obj 411 68 r sampleinit;
#X floatatom 373 189 5 0 0 0 - - -;
#X text 368 171 length;
#X floatatom 374 212 5 0 0 0 - - -;
#X text 367 230 volume;
#X floatatom 421 189 5 0 0 0 - - -;
#X floatatom 470 189 5 0 0 0 - - -;
#X text 470 169 pitch;
#X text 422 170 start;
#X obj 554 261 s lastload;
#X msg 411 141 1;
#X msg 373 141 440;
#X msg 85 100 100;
#X msg 225 365 100;
#X obj 171 86 r channel6;
#X obj 84 192 sampleplayer 6;
#X obj 224 457 sampleplayer 7;
#X obj 311 351 r channel7;
#X obj 534 127 r channel8;
#X obj 447 233 sampleplayer 8;
#X msg 448 141 113;
#X msg 338 431 samples/drum7.wav;
#X msg 199 168 samples/drum6.wav;
#X obj 71 453 / 127;
#X obj 70 478 * 10;
#X obj 69 428 r vol7;
#X obj 14 253 / 127;
#X obj 13 278 * 10;
#X obj 12 228 r vol6;
#X obj 312 231 / 127;
#X obj 315 257 * 10;
#X obj 310 206 r vol8;
#X msg 561 207 samples/drum8.wav;
#X connect 0 0 50 4;
#X connect 1 0 50 5;
#X connect 4 0 57 0;
#X connect 4 0 16 0;
#X connect 4 0 15 0;
#X connect 4 0 47 0;
#X connect 5 0 50 1;
#X connect 7 0 50 0;
#X connect 9 0 50 2;
#X connect 10 0 50 3;
#X connect 14 0 2 0;
#X connect 15 0 9 0;
#X connect 16 0 5 0;
#X connect 17 0 51 4;
#X connect 18 0 51 5;
#X connect 20 0 56 0;
#X connect 20 0 31 0;
#X connect 20 0 30 0;
#X connect 20 0 48 0;
#X connect 21 0 51 1;
#X connect 23 0 51 0;
#X connect 25 0 51 2;
#X connect 26 0 51 3;
#X connect 30 0 25 0;
#X connect 31 0 21 0;
#X connect 32 0 54 4;
#X connect 33 0 54 5;
#X connect 35 0 67 0;
#X connect 35 0 46 0;
#X connect 35 0 45 0;
#X connect 35 0 55 0;
#X connect 36 0 54 1;
#X connect 38 0 54 0;
#X connect 40 0 54 2;
#X connect 41 0 54 3;
#X connect 45 0 40 0;
#X connect 46 0 36 0;
#X connect 47 0 10 0;
#X connect 48 0 26 0;
#X connect 49 0 0 0;
#X connect 50 0 3 0;
#X connect 50 1 13 0;
#X connect 51 0 19 0;
#X connect 51 1 29 0;
#X connect 52 0 17 0;
#X connect 53 0 32 0;
#X connect 54 0 34 0;
#X connect 54 1 44 0;
#X connect 55 0 41 0;
#X connect 56 0 51 6;
#X connect 57 0 50 6;
#X connect 58 0 59 0;
#X connect 59 0 23 0;
#X connect 60 0 58 0;
#X connect 61 0 62 0;
#X connect 62 0 7 0;
#X connect 63 0 61 0;
#X connect 64 0 65 0;
#X connect 65 0 38 0;
#X connect 66 0 64 0;
#X connect 67 0 54 6;
