#N canvas 742 280 522 439 10;
#X obj 74 31 ctlin \$1 1;
#X obj 278 76 ctlin \$2 1;
#X obj 72 132 hradio 15 1 0 8 empty empty empty 0 -8 0 10 -262144 -1
-1 4;
#X obj 26 75 inlet;
#X obj 23 246 s channel1;
#X obj 37 217 select 0 1 2 3 4 5 6 7;
#X obj 42 167 f;
#X obj 63 296 s channel3;
#X obj 230 262 s vol1;
#X obj 249 230 f;
#X obj 279 260 f;
#X obj 260 292 s vol2;
#X obj 309 290 f;
#X obj 339 320 f;
#X obj 290 322 s vol3;
#X obj 320 352 s vol4;
#X obj 38 193 t f f;
#X obj 227 197 select 0 1 2 3 4 5 6 7;
#X floatatom 345 125 5 0 0 0 - - -, f 5;
#X obj 73 57 / 16;
#X obj 73 86 int;
#X obj 75 107 change;
#X obj 13 131 bng 15 250 50 0 empty empty empty 17 7 0 10 -262144 -1
-1;
#X obj 282 118 * 1;
#X obj 83 323 s channel4;
#X obj 43 273 s channel2;
#X obj 339 230 f;
#X obj 369 260 f;
#X obj 399 290 f;
#X obj 429 320 f;
#X obj 320 262 s vol5;
#X obj 350 292 s vol6;
#X obj 380 322 s vol7;
#X obj 410 352 s vol8;
#X obj 103 246 s channel5;
#X obj 123 273 s channel6;
#X obj 143 296 s channel7;
#X obj 163 323 s channel8;
#X connect 0 0 19 0;
#X connect 1 0 18 0;
#X connect 1 0 23 0;
#X connect 2 0 6 1;
#X connect 3 0 6 0;
#X connect 5 0 4 0;
#X connect 5 1 25 0;
#X connect 5 2 7 0;
#X connect 5 3 24 0;
#X connect 5 4 34 0;
#X connect 5 5 35 0;
#X connect 5 6 36 0;
#X connect 5 7 37 0;
#X connect 6 0 16 0;
#X connect 9 0 8 0;
#X connect 10 0 11 0;
#X connect 12 0 14 0;
#X connect 13 0 15 0;
#X connect 16 0 5 0;
#X connect 16 1 17 0;
#X connect 17 0 9 0;
#X connect 17 1 10 0;
#X connect 17 2 12 0;
#X connect 17 3 13 0;
#X connect 17 4 26 0;
#X connect 17 5 27 0;
#X connect 17 6 28 0;
#X connect 17 7 29 0;
#X connect 19 0 20 0;
#X connect 20 0 21 0;
#X connect 21 0 2 0;
#X connect 22 0 6 0;
#X connect 23 0 9 1;
#X connect 23 0 10 1;
#X connect 23 0 12 1;
#X connect 23 0 13 1;
#X connect 23 0 26 1;
#X connect 23 0 27 1;
#X connect 23 0 28 1;
#X connect 23 0 29 1;
#X connect 26 0 30 0;
#X connect 27 0 31 0;
#X connect 28 0 32 0;
#X connect 29 0 33 0;
